<?xml version="1.0" encoding="utf-8"?>
<!-- Generator: Adobe Illustrator 24.2.3, SVG Export Plug-In . SVG Version: 6.00 Build 0)  -->
<svg version="1.1" id="Layer_1" xmlns="http://www.w3.org/2000/svg" xmlns:xlink="http://www.w3.org/1999/xlink" x="0px" y="0px"
	 viewBox="0 0 2500 939" style="enable-background:new 0 0 2500 939;" xml:space="preserve">
<style type="text/css">
	.st0{fill:#201C1D;}
	.st1{fill:#F7A80D;}
</style>
<path class="st0" d="M807.7,344.5c-48.9,0-103.6,18.8-115,80.9c-1.2,6.6,3.1,9.7,7.4,10.7l50.2,6c4.6-0.2,7.8-5.3,8.7-10
	c4.3-21.4,21.8-31.4,41.5-31.4c10.6,0,22.5,3.6,28.8,13.4c7.2,10.8,6.7,25.6,6.7,38.1v7.4c-29.8,3.4-69,5.5-96.9,18.1
	c-32.2,14.3-54.8,43.4-54.8,86.2c0,54.9,33.6,82.2,76.9,82.2c36.5,0,56.7-8.6,84.9-38.1c9.4,13.9,12.3,20.2,29.4,34.8
	c3.9,2.2,8.7,1.7,12-1.3v0.7c10.3-9.4,28.9-26.4,39.5-35.4c4.2-3.5,3.3-9.3,0-14c-9.4-13.3-19.4-24-19.4-48.8v-82.2
	c0-34.8,3-66.9-22.1-90.9C865.6,351.1,832.7,344.5,807.7,344.5L807.7,344.5z M1481.7,344.5c-49,0-103.5,18.8-115,80.9
	c-1.2,6.6,3.1,9.7,7.4,10.7l50.2,6c4.6-0.2,7.8-5.3,8.7-10c4.3-21.4,21.8-31.4,41.5-31.4c10.6,0,22.5,3.6,28.8,13.4
	c7.2,10.8,6,25.6,6,38.1v7.4c-29.8,3.4-68.4,5.5-96.3,18.1c-32.2,14.3-54.8,43.4-54.8,86.2c0,54.9,33.6,82.2,76.9,82.2
	c36.5,0,56.7-8.6,84.9-38.1c9.3,13.9,12.3,20.2,29.4,34.8c3.9,2.1,8.6,1.8,12-1.3v0.7c10.3-9.4,28.9-26.4,39.5-35.4
	c4.2-3.5,3.2-9.3,0-14c-9.4-13.3-19.4-24-19.4-48.8v-82.2c0-34.8,2.2-66.9-22.7-90.9C1538.8,351.1,1506.7,344.5,1481.7,344.5
	L1481.7,344.5z M1102.6,347.1c-31.6,0-55.1,16-67.5,50.2h-0.7v-35.4c-0.4-5-4.3-9-9.4-9.4h-48.1c-5.5,0.1-10,4.5-10,10v270.8
	c0.5,5,4.4,8.9,9.4,9.4h51.5c5.5-0.1,10-4.5,10-10V488.9c0-31.3-1.5-74.2,35.4-74.2c36.5,0,31.4,44.1,31.4,74.2v143.8
	c0,5.1,4.2,9.7,9.4,10h51.5c5.5-0.1,10-4.5,10-10V488.9c0-15.4-0.6-37.8,4.7-51.5c5.3-13.7,18.3-22.7,30.8-22.7
	c14.9,0,26.3,5.2,30.1,23.4c2.4,10.8,1.3,39.4,1.3,50.8v143.8c0,5.1,4.2,9.7,9.4,10h51.5c5.5-0.1,10-4.5,10-10V461.5
	c0-29.1,2.9-62.1-13.4-84.9c-14.4-20.5-37.9-29.4-59.5-29.4c-30.3,0-58.4,16-70.9,50.2C1155,363.1,1134.7,347.1,1102.6,347.1
	L1102.6,347.1z M1977.8,347.1c-74.4,0-115.7,65.4-115.7,149.8c0,83.8,40.8,151.1,115.7,151.1c72,0,117.7-65.8,117.7-148.4
	C2095.5,414.1,2054.1,347.1,1977.8,347.1L1977.8,347.1z M2271.3,347.1c-35.5,0-55.8,17.8-70.2,54.8h-0.7v-41.5
	c-0.9-4.2-4.9-7.1-9.4-7.4h-47.5c-5.1-0.1-9.4,3.6-10,8.7v270.8c0.1,5.2,4.1,9.6,9.4,10h50.8c5.5-0.1,10-4.5,10-10V486.9
	c0-18.3,1.5-34.9,8.7-51.5c5.8-13.1,16.9-21.4,29.4-21.4c35.5,0,32.1,43.2,32.1,72.9V634c0.7,4.7,4.6,8.4,9.4,8.7h51.5
	c5,0,9.4-3.9,10-8.7V463.5c0-26.2,0.1-62.6-13.4-84.3C2317.1,355.9,2294.3,347.1,2271.3,347.1L2271.3,347.1z M1653.5,351.8
	c-5.2,0-9.3,4.2-9.4,10v38.8c0,5.8,4,10,9.4,10h88.3l-101,149.1c-6.2,9.6-6.7,20.5-6.7,26.7V626c0,5.7,6.2,11.9,12,8.7
	c57.5-31.4,126.5-28.6,178.5-0.7c6.3,3.4,12.7-3,12.7-8.7v-41.5c-0.3-6.2-3.9-11.8-9.4-14.7c-29.5-17-63.8-22.2-96.3-21.4
	l87.6-128.4c8.1-11.5,12.6-18.5,12.7-24.1v-33.4c0-5.8-3.9-10-9.4-10H1653.5z M1977.8,402.6c16.3,0,28.3,7.3,34.1,26.1
	c6.7,21.7,7.4,48.7,7.4,71.5c0,34.7-1.6,92.3-41.5,92.3c-40.3,0-40.1-71.2-40.1-104.3C1937.7,455.2,1939.9,402.6,1977.8,402.6z
	 M835.1,501.6V513c0,20.6,0.7,37.9-9.4,56.2c-8.2,14.9-21,24.1-35.4,24.1c-19.7,0-31.4-16-31.4-38.8
	C758.9,509.5,798,501.6,835.1,501.6z M1509.1,501.6V513c0,20.6,0.7,37.9-9.4,56.2c-8.2,14.9-20.9,24.1-35.4,24.1
	c-19.7,0-31.4-16-31.4-38.8C1432.9,509.5,1471.9,501.6,1509.1,501.6z"/>
<path d="M1842.7,651.4v38.8h26.1v-38.8H1842.7z M1086.5,658.1v276.1h24.1v-24.7c5.1,9.8,11,17.1,18.1,22.1
	c7.1,4.9,15.2,7.4,24.1,7.4c17.7,0,32.9-9,46.1-27.4s20.1-45,20.1-78.9c0-22.2-2.8-40.6-8.7-56.2c-5.8-15.6-13.7-27.1-23.4-34.8
	s-20.8-12-32.8-12c-8.3-0.1-16.4,2.2-23.4,6.7c-7,4.5-12.6,11.7-18.1,20.7v-99L1086.5,658.1L1086.5,658.1z M1333.9,722.9
	c-18.1,0-32.5,5.4-42.8,16c-10.2,10.7-15.4,24.4-15.4,41.5c0,9.9,2.2,18.3,6,26.1c3.8,7.8,9.2,14.1,16,18.7
	c6.8,4.6,20.5,10.7,40.8,17.4c14,4.5,22.4,8.4,26.1,11.4c5.3,4.4,8,10.1,8,18.1c0,9.2-3.2,16.8-9.4,22.7c-6.2,6-14.8,8.7-26.1,8.7
	s-20.6-3.2-27.4-10c-6.8-6.9-10.5-17.3-12-31.4l-26.1,5.3c5.9,42.9,27.3,64.2,64.2,64.2c19.7,0,34.7-5.6,46.1-17.4
	c11.4-11.8,17.4-27.7,17.4-46.8c0-10.3-1.8-19.3-5.3-26.7s-8.4-13-14.7-17.4c-6.4-4.3-20.5-10.1-42.1-17.4
	c-15.7-5.5-24.9-9.5-28.1-12c-5.3-4.2-8-10-8-17.4c0-7.5,2.5-13.9,8-18.7s14.1-7.4,25.4-7.4c19.9,0,31.1,11,33.4,32.8l25.4-4
	c-1.8-13.8-4.8-24.7-9.4-32.1c-4.6-7.4-11.4-13.7-20.1-18.1C1355.3,724.6,1345.4,722.9,1333.9,722.9L1333.9,722.9z M1493.7,722.9
	c-20.9,0-38.5,8.6-52.2,26.7c-13.6,18.1-20.1,44.4-20.1,78.9c0,33.2,6.6,59.3,20.1,76.9c13.5,17.6,31,26.1,52.8,26.1
	c17.4,0,31.7-5.2,43.5-16c11.7-10.8,20.3-26.8,24.7-48.1l-26.7-4.7c-7.7,27.3-21.8,40.7-41.5,40.8c-12.5,0-22.7-5.3-31.4-16.7
	c-8.7-11.4-13.7-28.4-14.7-50.8h115v-9.4c0-33.7-6.7-59.1-20.1-76.9C1529.8,731.8,1513.6,722.9,1493.7,722.9L1493.7,722.9z
	 M1652.2,722.9c-6.2,0-11.7,2.1-16.7,6.7s-10.7,14-16.7,28.1v-30.8h-23.4v199.9h26.1V822.5c0-14.5,1.4-28.5,4.7-41.5
	c1.9-7.4,5.4-13.2,10-17.4s9.8-6,15.4-6c6.1,0,12.2,2.5,18.7,7.4l8.7-31.4C1669.8,726.3,1660.9,722.9,1652.2,722.9L1652.2,722.9z
	 M1971.8,722.9c-20.6,0-37.7,8.7-50.8,26.1c-13.1,17.4-20.1,43.5-20.1,78.2c0,34.5,7,60.6,20.1,78.2c13,17.6,29.3,26.1,49.5,26.1
	c16.6,0,30.9-6.2,42.8-18.7c11.9-12.5,19.1-31,22.1-54.8l-25.4-4c-1.9,17.1-6.3,29.3-13.4,37.4c-7,8.1-15.5,12-25.4,12
	c-12.6,0-23.4-5.9-31.4-18.1s-12-31.6-12-58.8c0-26.4,4.3-45.4,12.7-57.5c8.5-12.1,19.2-18.7,32.1-18.7c8.6,0,15.9,3.3,22.1,10
	c6.2,6.7,10.2,17.3,12.7,30.8l25.4-5.3c-3.1-21.1-9.8-37-20.7-47.5C2001,727.7,1987.7,722.9,1971.8,722.9L1971.8,722.9z
	 M2120.9,722.9c-20.9,0-38.5,8.6-52.2,26.7c-13.6,18.1-20.1,44.4-20.1,78.9c0,33.2,6.6,59.3,20.1,76.9c13.5,17.6,31,26.1,52.8,26.1
	c17.3,0,31.7-5.2,43.5-16c11.7-10.8,20.2-26.8,24.7-48.1l-26.7-4.7c-7.7,27.3-21.2,40.7-40.8,40.8c-12.5,0-23.4-5.3-32.1-16.7
	c-8.7-11.4-13.7-28.4-14.7-50.8h115v-9.4c0-33.7-6.7-59.1-20.1-76.9C2157.1,731.8,2140.8,722.9,2120.9,722.9L2120.9,722.9z
	 M2275.3,722.9c-18.2,0-32.5,5.4-42.8,16c-10.3,10.7-15.4,24.4-15.4,41.5c0,9.9,1.6,18.3,5.3,26.1c3.8,7.8,9.2,14.1,16,18.7
	c6.8,4.6,20.5,10.7,40.8,17.4c14,4.5,23.1,8.4,26.7,11.4c5.3,4.4,8,10.1,8,18.1c0,9.2-3.2,16.8-9.4,22.7c-6.2,6-14.8,8.7-26.1,8.7
	c-11.3,0-20.6-3.2-27.4-10c-6.8-6.9-11.2-17.3-12.7-31.4l-26.1,5.3c5.9,42.9,27.2,64.2,64.2,64.2c19.7,0,35.4-5.6,46.8-17.4
	c11.4-11.8,17.4-27.7,17.4-46.8c0-10.3-1.8-19.3-5.3-26.7c-3.5-7.5-9-13-15.4-17.4c-6.3-4.3-19.9-10.1-41.5-17.4
	c-15.7-5.5-25.6-9.5-28.8-12c-5.3-4.2-8-10-8-17.4c0-7.5,3.1-13.9,8.7-18.7s14.1-7.4,25.4-7.4c19.9,0,31.1,11,33.4,32.8l25.4-4
	c-1.8-13.8-4.8-24.7-9.4-32.1c-4.9-7.7-11.9-14-20.1-18.1C2296.8,724.6,2286.8,722.9,2275.3,722.9L2275.3,722.9z M1678.9,726.9
	l58.2,199.9h24.7l58.2-199.9h-26.7l-34.1,122.4c-4.1,14.8-7.8,27.6-10,38.1c-2.8-13.3-5.6-27.2-9.4-40.8l-33.4-119.7L1678.9,726.9
	L1678.9,726.9z M1842.7,726.9v199.9h26.1V726.9L1842.7,726.9L1842.7,726.9z M985.6,729.6c-20.7,0-37.3,9.3-50.8,27.4
	c-13.5,18.1-20.7,44.4-20.7,78.9c0,33.2,6.7,58.6,20.1,76.2s31.2,26.7,52.8,26.7c17.2,0,31.2-5.9,42.8-16.7
	c11.6-10.8,19.6-26.8,24.1-48.1l-26.1-4c-7.6,27.3-21.4,40.7-40.8,40.8c-12.4,0-22.8-5.3-31.4-16.7c-8.6-11.4-13.7-28.4-14.7-50.8
	h113.7l0.7-9.4c0-33.7-6.8-59.7-20.1-77.6C1021.8,738.5,1005.3,729.6,985.6,729.6L985.6,729.6z M692,734.3l46.8,199.9h27.4
	L797,780.4l5.3,34.1l24.7,119.7h26.7l47.5-199.9h-24.7L850.5,850l-8.7,38.8l-8-38.8l-22.7-115.7h-26.7l-24.1,117l-8,41.5l-9.4-42.8
	l-24.1-115.7L692,734.3L692,734.3z M2356.2,736.3v9.4h25.4v66.9h10v-66.9h25.4v-9.4H2356.2L2356.2,736.3z M2427.1,736.3v76.2h9.4
	v-64.9l22.1,64.9h9.4L2490,749v63.5h10v-76.2h-14l-18.1,53.5c-1.8,5.3-3.1,9.2-4,12l-4-11.4l-18.1-54.2L2427.1,736.3L2427.1,736.3z
	 M1493,750.3c13,0,23.7,6.3,32.1,18.7c5.8,8.5,9.5,21.5,10.7,38.8h-86.2c0.8-17.5,5.8-31.1,14-41.5
	C1471.9,756,1481.4,750.3,1493,750.3z M2120.2,750.3c12.9,0,23.7,6.3,32.1,18.7c5.8,8.5,9.5,21.5,10.7,38.8h-86.2
	c0.8-17.5,5.8-31.1,14-41.5C2099,756,2108.5,750.3,2120.2,750.3z M985.6,757.7c12.8,0,23.2,6.3,31.4,18.7
	c5.7,8.5,9.5,21.5,10.7,38.8h-84.9c0.8-17.5,5.2-31.8,13.4-42.1C964.3,762.7,974,757.7,985.6,757.7z M1151.4,757.7
	c11.6,0,21.5,6.4,29.4,18.7c8,12.3,11.4,31.3,11.4,57.5c0,25.6-3.8,44.6-12,57.5s-18.1,19.4-28.8,19.4c-7.8,0-15-2.6-21.4-8
	c-6.5-5.4-11.2-13.1-14.7-23.4c-3.5-10.3-5.3-26.1-5.3-46.8c0-24.4,4.3-42.6,12.7-55.5C1131,764.2,1140.7,757.7,1151.4,757.7
	L1151.4,757.7z"/>
<path class="st1" d="M317.3,545.7l-99.6,42.8l92.3,39.5l107-39.5L317.3,545.7z M167.5,599.2l-3.3,192.6L309.9,856V656L167.5,599.2
	L167.5,599.2z M467,599.2l-131.7,50.2v188.5L467,784.4V599.2L467,599.2z M624.2,0.1L523.9,42.9l92.9,39.5l107-39.5L624.2,0.1
	L624.2,0.1z M485.1,57v192.6l124.4,36.1l4-175.2L485.1,57z M763.2,67.7l-117.7,50.2v189.2l117.7-53.5V67.7z M153.1,271.1l-99.6,42.8
	l92.3,39.5l107-39.5L153.1,271.1L153.1,271.1z M3.3,324.6L0,517.2l145.7,64.2V381.5L3.3,324.6z M302.9,324.6l-131.7,50.2v188.5
	l131.7-53.5V324.6z M474.1,264l-99.6,42.8l92.3,39.5l107-39.5L474.1,264L474.1,264z M324.3,317.5l-3.3,192.6l145.7,64.2V374.4
	L324.3,317.5z M623.8,317.5l-131.7,50.2v188.5l131.7-53.5V317.5z M937.6,0.1L838,42.9l92.3,39.5l107-39.5
	C1037.3,42.9,937.6,0.1,937.6,0.1z M787.9,53.6l-3.3,192.6l145.7,64.2V110.5L787.9,53.6L787.9,53.6z M1087.4,53.6l-131.7,50.2v188.5
	l131.7-53.5V53.6L1087.4,53.6z"/>
<g>
	<path class="st0" d="M1188.5,80.3h19.3v15.6c4-5.3,8.3-9.5,13-12.4c6.7-4.4,14.5-6.6,23.6-6.6c13.4,0,24.7,5.1,34,15.3
		c9.3,10.2,14,24.8,14,43.8c0,25.6-6.7,43.9-20.2,54.9c-8.5,7-18.5,10.4-29.8,10.4c-8.9,0-16.4-1.9-22.4-5.8
		c-3.5-2.2-7.5-6-11.8-11.3v60.1h-19.8V80.3z M1262.9,172.6c6.1-7.7,9.2-19.3,9.2-34.7c0-9.4-1.4-17.4-4.1-24.2
		c-5.1-13-14.6-19.4-28.2-19.4c-13.7,0-23.2,6.8-28.2,20.5c-2.7,7.3-4.1,16.6-4.1,27.9c0,9.1,1.4,16.8,4.1,23.2
		c5.1,12.2,14.5,18.2,28.2,18.2C1249,184.2,1256.7,180.3,1262.9,172.6z"/>
	<path class="st0" d="M1400.5,91.5c10.4,10.1,15.6,25,15.6,44.6c0,19-4.6,34.6-13.7,47c-9.2,12.4-23.4,18.5-42.7,18.5
		c-16.1,0-28.8-5.5-38.3-16.4s-14.2-25.6-14.2-44.1c0-19.8,5-35.5,14.9-47.2c10-11.7,23.3-17.6,40.1-17.6
		C1377.4,76.4,1390.1,81.4,1400.5,91.5z M1388.2,169.7c4.8-9.9,7.2-20.9,7.2-33.1c0-11-1.7-19.9-5.2-26.8
		c-5.5-10.8-15-16.2-28.5-16.2c-12,0-20.6,4.6-26.1,13.8c-5.4,9.2-8.1,20.3-8.1,33.4c0,12.5,2.7,22.9,8.1,31.3
		c5.4,8.3,14,12.5,25.9,12.5C1374.5,184.6,1383.4,179.6,1388.2,169.7z"/>
	<path class="st0" d="M1449.5,79.8l22.6,92.7l23-92.7h22.2l23.1,92.2l24.1-92.2h19.8l-34.2,117.7h-20.5l-24-91.1l-23.2,91.1h-20.5
		l-33.9-117.7H1449.5z"/>
	<path class="st0" d="M1675.5,83c7.8,3.9,13.7,9,17.8,15.2c3.9,5.9,6.6,12.9,7.9,20.8c1.2,5.4,1.7,14.1,1.7,25.9h-85.6
		c0.4,12,3.2,21.6,8.4,28.8s13.3,10.9,24.3,10.9c10.2,0,18.4-3.4,24.5-10.3c3.4-4,5.8-8.6,7.3-13.8h19.4c-0.5,4.3-2.2,9.1-5.1,14.4
		c-2.9,5.3-6.1,9.7-9.7,13c-6,5.9-13.3,9.8-22.1,11.9c-4.7,1.2-10.1,1.8-16,1.8c-14.6,0-26.9-5.3-37-16
		c-10.1-10.7-15.2-25.6-15.2-44.8c0-18.9,5.1-34.2,15.3-46c10.2-11.8,23.5-17.7,40-17.7C1659.7,77.2,1667.7,79.1,1675.5,83z
		 M1682.6,129.2c-0.8-8.6-2.7-15.4-5.6-20.5c-5.4-9.5-14.3-14.3-26.9-14.3c-9,0-16.6,3.3-22.7,9.8c-6.1,6.6-9.3,14.9-9.7,25H1682.6z
		"/>
	<path class="st0" d="M1728.5,79.8h18.8v20.3c1.5-4,5.3-8.8,11.3-14.4c6-5.7,12.9-8.5,20.8-8.5c0.4,0,1,0,1.9,0.1
		c0.9,0.1,2.4,0.2,4.5,0.4v20.9c-1.2-0.2-2.3-0.4-3.2-0.4c-1-0.1-2.1-0.1-3.2-0.1c-10,0-17.6,3.2-23,9.6c-5.3,6.4-8,13.8-8,22.1
		v67.7h-19.8V79.8z"/>
	<path class="st0" d="M1875.6,83c7.8,3.9,13.7,9,17.8,15.2c3.9,5.9,6.6,12.9,7.9,20.8c1.2,5.4,1.7,14.1,1.7,25.9h-85.6
		c0.4,12,3.2,21.6,8.4,28.8s13.3,10.9,24.3,10.9c10.2,0,18.4-3.4,24.5-10.3c3.4-4,5.8-8.6,7.3-13.8h19.4c-0.5,4.3-2.2,9.1-5.1,14.4
		c-2.9,5.3-6.1,9.7-9.7,13c-6,5.9-13.3,9.8-22.1,11.9c-4.7,1.2-10.1,1.8-16,1.8c-14.6,0-26.9-5.3-37-16
		c-10.1-10.7-15.2-25.6-15.2-44.8c0-18.9,5.1-34.2,15.3-46c10.2-11.8,23.5-17.7,40-17.7C1859.8,77.2,1867.8,79.1,1875.6,83z
		 M1882.7,129.2c-0.8-8.6-2.7-15.4-5.6-20.5c-5.4-9.5-14.3-14.3-26.9-14.3c-9,0-16.6,3.3-22.7,9.8c-6.1,6.6-9.3,14.9-9.7,25H1882.7z
		"/>
	<path class="st0" d="M1992.7,83.4c3.5,2.2,7.5,6,11.9,11.5V35.5h19v161.9h-17.8v-16.4c-4.6,7.3-10,12.5-16.3,15.7
		c-6.3,3.2-13.5,4.8-21.6,4.8c-13.1,0-24.4-5.5-33.9-16.5c-9.6-11-14.3-25.7-14.3-44c0-17.1,4.4-32,13.1-44.5
		c8.7-12.6,21.2-18.8,37.4-18.8C1979.1,77.7,1986.6,79.6,1992.7,83.4z M1948.6,171.6c5.3,8.5,13.8,12.7,25.6,12.7
		c9.1,0,16.6-3.9,22.5-11.8c5.9-7.9,8.8-19.2,8.8-33.9c0-14.9-3-25.9-9.1-33c-6-7.1-13.5-10.7-22.4-10.7c-9.9,0-17.9,3.8-24.1,11.4
		c-6.2,7.6-9.2,18.8-9.2,33.6C1940.6,152.6,1943.2,163.1,1948.6,171.6z"/>
	<path class="st0" d="M2114.1,35.5h19.2v58.6c4.3-5.6,9.5-9.9,15.6-12.9c6-3,12.6-4.4,19.6-4.4c14.7,0,26.6,5,35.8,15.1
		c9.2,10.1,13.7,24.9,13.7,44.5c0,18.6-4.5,34.1-13.6,46.4c-9,12.3-21.6,18.5-37.6,18.5c-9,0-16.5-2.2-22.7-6.5
		c-3.7-2.6-7.6-6.7-11.8-12.3v15.1h-18.2V35.5z M2189.7,171c5.3-8.5,8-19.7,8-33.6c0-12.4-2.7-22.6-8-30.8
		c-5.3-8.1-13.2-12.2-23.5-12.2c-9,0-17,3.3-23.8,10c-6.8,6.7-10.2,17.7-10.2,33c0,11.1,1.4,20,4.2,26.9c5.2,13,15,19.4,29.2,19.4
		C2176.3,183.7,2184.3,179.5,2189.7,171z"/>
	<path class="st0" d="M2314.4,79.8h21.9c-2.8,7.5-9,24.8-18.6,51.7c-7.2,20.2-13.2,36.7-18,49.5c-11.4,30-19.5,48.3-24.1,54.9
		c-4.7,6.6-12.7,9.9-24.1,9.9c-2.8,0-4.9-0.1-6.4-0.3c-1.5-0.2-3.3-0.6-5.5-1.2v-18c3.4,1,5.9,1.5,7.5,1.8c1.5,0.2,2.9,0.3,4.1,0.3
		c3.7,0,6.3-0.6,8.1-1.8c1.7-1.2,3.2-2.7,4.3-4.4c0.4-0.6,1.7-3.6,3.9-9c2.3-5.4,3.9-9.4,4.9-12.1l-43.5-121.1h22.4l31.5,95.8
		L2314.4,79.8z"/>
</g>
</svg>
