<?xml version="1.0" encoding="utf-8"?>
<!-- Generator: Adobe Illustrator 24.2.3, SVG Export Plug-In . SVG Version: 6.00 Build 0)  -->
<svg version="1.1" id="Layer_1" xmlns="http://www.w3.org/2000/svg" xmlns:xlink="http://www.w3.org/1999/xlink" x="0px" y="0px"
	 viewBox="0 0 322 135" style="enable-background:new 0 0 322 135;" xml:space="preserve">
<style type="text/css">
	.st0{fill:#FFFFFF;}
	.st1{fill:#841E43;}
</style>
<g>
	<g>
		<path class="st0" d="M224,89.3l48.8-61.1L249.6,4.7h-51.4L175,27.9L224,89.3z M185.7,31.2l18.6-0.1l12.7,40L185.7,31.2z
			 M230.8,71.1l12.7-40l18.6,0.1L230.8,71.1z M247,10.7l14.1,14.6h-17.2l-6.3-14.6H247z M216.6,10.8H231l5.7,14.5h-26L216.6,10.8z
			 M237.1,31.1l-13.2,41.7l-13.2-41.7H237.1z M200.8,10.7h9.4l-6.3,14.6h-17.2L200.8,10.7z"/>
		<path class="st0" d="M320.8,99.8c-12.2,0-24.5,0-36.7,0c2.6-0.6,5.2-1.5,7.6-2.5c3.4-1.4,6.6-3.3,9.5-5.4c3.8-2.7,7.1-6,10-9.6
			c2.5-3.1,4.6-6.4,6.3-10c1.4-3,2.6-6.1,3.4-9.3c-8.8-0.1-17.6-0.2-26.4-0.3c-0.7,1.9-1.6,3.7-2.8,5.4c-2,2.9-4.6,5.4-7.6,7.4
			c-3.1,2-6.6,3.3-10.2,3.6c-2.9,0.3-5.8-0.1-8.6-0.9c-3.5-1-6.9-2.8-9.6-5.2c-2.6-2.3-4.6-5.2-6-8.3c-5.1,6.5-10.3,13.1-15.4,19.6
			c2.2,2.6,4.6,5,7.3,7c3.3,2.4,6.9,4.3,10.6,5.9c2.4,1,4.9,1.9,7.4,2.6c-22.8,0-45.6,0-68.4,0c3.3-1.1,6.5-2.5,9.5-4.2
			c4.9-2.8,9.4-6.3,13.3-10.4c-5.1-6.3-10.3-12.7-15.4-19c-0.9,1.5-1.9,3-3.1,4.3c-3.1,3.5-7.1,6.3-11.6,7.7
			c-5.3,1.6-11.2,1.4-16.4-0.7c-4.8-1.9-9-5.5-11.9-9.8c-2.3-3.4-3.8-7.3-4.5-11.3c-1.2-6.5-0.4-13.4,2.7-19.3
			c2.7-5.3,7.3-9.9,12.7-12.2c2-0.8,4.1-1.4,6.3-1.7c6.4-6.6,12.8-13.2,19.2-19.9c-4.6-1.5-9.3-2.3-14.1-2.5
			c-8-0.3-16.2,1.4-23.5,4.9c-7.9,3.8-14.8,9.9-19.7,17.1c-1.6,2.3-3,4.8-4.3,7.3c0-9.6,0-19.2,0-28.8c-8.4,0-16.8,0-25.2,0
			c-3.9,5.6-7.8,11.2-11.7,16.8c0-5.5,0-11,0-16.5c-8.5,0-17.1,0-25.6,0C45.8,34.3,23.4,67.1,1,99.8c0,11.4,0,22.9,0,34.3
			c106.6,0,213.2,0,319.8,0C320.8,122.7,320.8,111.3,320.8,99.8z M68.2,99.8H31.5L68.3,40L68.2,99.8z M104.8,99.8h-36l36-60.1V99.8z
			 M130.9,99.8c0-9,0-18,0-26.9c1.4,2.8,3.1,5.4,4.9,7.9c2.5,3.4,5.3,6.5,8.5,9.2c5.2,4.4,11.4,7.7,17.8,9.9
			C151.7,99.8,141.3,99.8,130.9,99.8z"/>
		<path class="st0" d="M278.5,23.8c3.3,0.9,6.5,2.7,9.1,5c1.7,1.5,3.2,3.2,4.5,5.1c1.2,1.8,2.3,3.8,3,5.9c8.6-0.1,17.3-0.2,25.9-0.3
			c-0.9-4-2.3-7.8-4.1-11.5c-2.1-4.1-4.7-7.9-7.9-11.3c-3.9-4.1-8.5-7.6-13.5-10.2c-5.5-2.8-11.5-4.5-17.7-5.2
			c-5.6-0.7-11.2-0.5-16.6,0.7c-1.9,0.4-3.8,1-5.7,1.7c6.4,6.4,12.7,12.9,19.1,19.3C275.9,23.2,277.2,23.4,278.5,23.8z"/>
	</g>
	<g>
		<polygon class="st1" points="69.6,104.1 65.7,104.1 65.7,109.8 63.8,109.8 63.8,113.3 65.7,113.3 65.7,125.4 69.6,125.4 
			69.6,113.4 72,113.4 72,109.9 69.6,109.9 		"/>
		<path class="st1" d="M189.1,110.1c-1.4,0-2.5,0.5-3.3,1.4c0-0.4,0-0.8,0-1.3c-1.2,0-2.5,0-3.7,0c0,5.1,0,10.1,0,15.2
			c1.2,0,2.5,0,3.7,0c0-2.9,0-5.8,0-8.7c0-2.2,1-3.3,3-3.3c1.7,0,2.5,1.1,2.5,3.4c0,2.9,0,5.7,0,8.6c1.2,0,2.5,0,3.7,0
			c0-3,0-5.9,0-8.9C194.9,112.3,193,110.1,189.1,110.1z"/>
		<path class="st1" d="M210.3,110.5c-1-0.8-2.4-1.3-4-1.3c-2.4,0-4.4,0.9-6.1,2.8c-1.5,1.7-2.2,3.6-2.2,5.7c0,2.2,0.7,4.1,2.2,5.7
			c1.6,1.8,3.6,2.7,6.1,2.7c1.6,0,3-0.4,4-1.3c0.2,2.2-0.9,3.3-3.2,3.3c-2.5,0-4.8-0.5-6.8-1.6c0,1.3,0,2.6,0,3.9
			c2,0.7,4.5,1.1,7.3,1.1c1.7,0,3.2-0.3,4.4-1c1.7-0.9,2.6-2.4,2.6-4.4c0-5.6,0-11.1,0-16.7c-1.4,0-2.9,0-4.3,0
			C210.3,109.8,210.3,110.1,210.3,110.5z M209.6,120.7c-0.8,0.9-1.8,1.4-3,1.4c-1.2,0-2.2-0.5-3-1.4c-0.8-0.9-1.2-1.9-1.2-3
			c0-1.2,0.4-2.2,1.2-3c0.8-0.9,1.8-1.3,3-1.3c1.2,0,2.2,0.4,3,1.3c0.8,0.9,1.2,1.9,1.2,3C210.7,118.8,210.3,119.8,209.6,120.7z"/>
		<path class="st1" d="M289.9,110.5c-0.4-0.4-1-0.7-1.8-1c-0.8-0.3-1.6-0.4-2.4-0.4c-2.4,0-4.4,0.9-6.1,2.7
			c-1.6,1.7-2.4,3.7-2.4,5.9c0,2.3,0.8,4.2,2.4,5.9c1.7,1.7,3.7,2.6,6.1,2.6c1.8,0,3.1-0.4,4.1-1.3c0,0.4,0,0.8,0,1.2
			c1.5,0,3,0,4.4,0c0-5.6,0-11.2,0-16.8c-1.5,0-3,0-4.4,0C289.9,109.7,289.9,110.1,289.9,110.5z M288.9,121.3
			c-0.9,0.9-1.8,1.4-2.9,1.4c-1.1,0-2.1-0.5-2.9-1.4c-0.9-1-1.3-2.2-1.3-3.7s0.4-2.7,1.3-3.7c0.8-0.9,1.8-1.4,2.9-1.4
			c1.1,0,2.1,0.5,2.9,1.4c0.9,1,1.3,2.2,1.3,3.7S289.8,120.3,288.9,121.3z"/>
		<path class="st1" d="M308.7,103.4c0,3.3,0,5.9,0,7.6c-1.1-0.8-2.4-1.2-3.9-1.2c-2.3,0-4.3,0.8-5.9,2.3c-1.5,1.5-2.3,3.2-2.3,5.2
			c0,2,0.8,3.8,2.3,5.4c1.6,1.6,3.6,2.4,5.9,2.4c1.6,0,2.9-0.4,3.9-1.2c0,0.4,0,0.7,0,1.1c1.4,0,2.8,0,4.3,0c0-6.4,0-13.6,0-21.6
			C311.5,103.4,310.1,103.4,308.7,103.4z M307.7,120.7c-0.8,0.9-1.7,1.3-2.8,1.3c-1.1,0-2-0.4-2.8-1.3c-0.9-0.9-1.3-2-1.3-3.4
			c0-1.3,0.4-2.4,1.3-3.2c0.8-0.8,1.8-1.2,2.8-1.2c1.1,0,2,0.4,2.8,1.2c0.9,0.8,1.3,1.9,1.3,3.2C309,118.7,308.5,119.8,307.7,120.7z
			"/>
		<path class="st1" d="M242.7,118.3c-1.2,0-2.4,0.1-3.6,0.1c0,0.4-0.1,0.8-0.2,1c-1.1-1.5-2.1-3-3.2-4.5c2.2-1.6,3.3-3.6,3.2-5.8
			c0-1.4-0.6-2.6-1.7-3.4c-1.1-0.9-2.4-1.3-3.8-1.3c-1.4,0-2.6,0.5-3.6,1.4c-1,0.9-1.5,2.1-1.5,3.6c0,1.1,0.7,2.6,2,4.4
			c-2.3,1.7-3.5,3.8-3.4,6.2c0.1,2.2,0.8,3.8,2.3,4.9c1.3,1,2.9,1.5,4.9,1.4c1.8-0.1,3.3-0.4,4.4-1.1c0.2,0.3,0.4,0.5,0.5,0.8
			c1.5-0.1,3-0.1,4.5-0.2c-0.8-1.1-1.6-2.2-2.3-3.3C242.2,121.4,242.7,119.9,242.7,118.3z M233.5,108.4c1,0,1.5,0.3,1.5,1.1
			c0,0.9-0.5,1.7-1.5,2.5c-0.8-1.1-1.3-1.8-1.3-2.1C232.2,108.9,232.6,108.4,233.5,108.4z M234.2,122.7c-0.9,0-1.6-0.2-2.2-0.7
			c-0.6-0.5-1-1.1-1-1.9c0-1.1,0.5-2.1,1.5-2.9c1.2,1.7,2.4,3.4,3.6,5C235.6,122.6,235,122.7,234.2,122.7z"/>
		<path class="st1" d="M159.3,116.5c-0.9-0.4-1.8-0.7-2.7-1.1c-0.9-0.4-1.3-0.9-1.3-1.5c0-1,0.6-1.4,1.9-1.4c1.5,0,2.2,0.7,2.2,2
			c1.1,0,2.2,0,3.3,0c0-1.8-0.5-3.1-1.5-4.2c-1-1.1-2.3-1.6-4-1.6c-1.6,0-2.8,0.4-3.8,1.2c-1,0.9-1.5,2.2-1.5,4
			c0,2.3,1.3,3.9,3.8,4.9c0.9,0.3,1.7,0.7,2.6,1c0.8,0.3,1.1,0.8,1.1,1.4c0,0.8-0.7,1.2-2.2,1.2c-1.7,0-3.4-0.6-5-1.7
			c0,1.3,0,2.7,0,4c1.2,0.9,3,1.3,5.3,1.3c1.4,0,2.6-0.4,3.6-1.1c1.2-0.9,1.8-2.2,1.8-3.9C162.9,118.9,161.7,117.4,159.3,116.5z"/>
		<path class="st1" d="M144.6,110.5c-0.4-0.4-1-0.7-1.8-1c-0.8-0.3-1.6-0.4-2.4-0.4c-2.4,0-4.4,0.9-6.1,2.7
			c-1.6,1.7-2.4,3.7-2.4,5.9c0,2.3,0.8,4.2,2.4,5.9c1.7,1.7,3.7,2.6,6.1,2.6c1.8,0,3.1-0.4,4.1-1.3c0,0.4,0,0.8,0,1.2
			c1.5,0,3,0,4.4,0c0-5.6,0-11.2,0-16.8c-1.5,0-3,0-4.4,0C144.6,109.7,144.6,110.1,144.6,110.5z M143.6,121.3
			c-0.9,0.9-1.8,1.4-2.9,1.4c-1.1,0-2.1-0.5-2.9-1.4c-0.9-1-1.3-2.2-1.3-3.7s0.4-2.7,1.3-3.7c0.8-0.9,1.8-1.4,2.9-1.4
			c1.1,0,2.1,0.5,2.9,1.4c0.9,1,1.3,2.2,1.3,3.7S144.5,120.3,143.6,121.3z"/>
		<polygon class="st1" points="18.4,117 15.1,104.3 6.4,104.3 6.4,125.2 11.8,125.2 11.8,109.2 16,125.2 20.8,125.2 25,109.2 
			25,125.2 30.4,125.2 30.4,104.3 21.8,104.3 		"/>
		<path class="st1" d="M44.3,110.5c-0.4-0.4-1-0.7-1.8-1c-0.8-0.3-1.6-0.4-2.4-0.4c-2.4,0-4.4,0.9-6.1,2.7c-1.6,1.7-2.4,3.7-2.4,5.9
			c0,2.3,0.8,4.2,2.4,5.9c1.7,1.7,3.7,2.6,6.1,2.6c1.8,0,3.1-0.4,4.1-1.3c0,0.4,0,0.8,0,1.2c1.5,0,3,0,4.4,0c0-5.6,0-11.2,0-16.8
			c-1.5,0-3,0-4.4,0C44.3,109.7,44.3,110.1,44.3,110.5z M43.3,121.3c-0.9,0.9-1.8,1.4-2.9,1.4c-1.1,0-2.1-0.5-2.9-1.4
			c-0.9-1-1.3-2.2-1.3-3.7s0.4-2.7,1.3-3.7c0.8-0.9,1.8-1.4,2.9-1.4c1.1,0,2.1,0.5,2.9,1.4c0.9,1,1.3,2.2,1.3,3.7
			S44.2,120.3,43.3,121.3z"/>
		<path class="st1" d="M59,116.5c-0.9-0.4-1.8-0.7-2.7-1.1c-0.9-0.4-1.3-0.9-1.3-1.5c0-1,0.6-1.4,1.9-1.4c1.5,0,2.2,0.7,2.2,2
			c1.1,0,2.2,0,3.3,0c0-1.8-0.5-3.1-1.5-4.2c-1-1.1-2.3-1.6-4-1.6c-1.6,0-2.8,0.4-3.8,1.2c-1,0.9-1.5,2.2-1.5,4
			c0,2.3,1.3,3.9,3.8,4.9c0.9,0.3,1.7,0.7,2.6,1c0.8,0.3,1.1,0.8,1.1,1.4c0,0.8-0.7,1.2-2.2,1.2c-1.7,0-3.4-0.6-5-1.7
			c0,1.3,0,2.7,0,4c1.2,0.9,3,1.3,5.3,1.3c1.4,0,2.6-0.4,3.6-1.1c1.2-0.9,1.8-2.2,1.8-3.9C62.6,118.9,61.4,117.4,59,116.5z"/>
		<path class="st1" d="M95.7,111.2c0-0.5,0-1,0-1.5c-1.2,0-2.5,0-3.7,0c0,5.2,0,10.4,0,15.6c1.2,0,2.5,0,3.7,0c0-2.8,0-5.6,0-8.5
			c0-1.2,0.3-2.2,1-3c0.6-0.7,1.3-1,2.2-1c0.9,0,1.6,0.2,2.2,0.5c0-1.2,0-2.4,0-3.6c-0.5-0.2-1.1-0.3-1.7-0.3
			C97.8,109.4,96.6,110,95.7,111.2z"/>
		<path class="st1" d="M81.6,108.8c-2.8,0-5,0.9-6.6,2.8c-1.5,1.6-2.3,3.6-2.3,5.9c0,2.4,0.8,4.4,2.4,6c1.7,1.7,4,2.6,6.8,2.6
			c2.5,0,4.5-0.4,5.8-1.2c0-1.3,0-2.6,0-3.9c-1.4,0.9-3.2,1.3-5.4,1.3c-1,0-1.9-0.3-2.8-0.8c-0.8-0.5-1.4-1.3-1.7-2.2
			c4.1,0,8.3,0,12.4,0c0-0.2,0-0.4,0-0.6s0-0.4,0-0.6c0-2.7-0.7-4.9-2.1-6.6C86.6,109.7,84.4,108.8,81.6,108.8z M77.7,116
			c0.2-1,0.7-1.9,1.4-2.5c0.7-0.7,1.6-1,2.6-1c1,0,1.9,0.4,2.6,1.1c0.7,0.7,1.1,1.5,1.2,2.4C82.9,116,80.3,116,77.7,116z"/>
		<path class="st1" d="M114,115c-0.1-6.5,8.7-8.7,11.7-2.9c1.8,0,3.6,0,5.4,0c-3.2-12.7-22-10.3-21.9,2.8c0,13.1,18.8,15.4,22,2.7
			c-1.8,0-3.5,0-5.3,0C123,123.4,114.2,121.5,114,115z"/>
		<path class="st1" d="M175.3,103.9c-1.2,0.5-1.9,1.9-1.4,3.1c0.5,1.2,1.9,1.9,3.1,1.4c1.2-0.5,1.9-1.9,1.4-3.1
			C178,104.1,176.6,103.5,175.3,103.9z"/>
		<rect x="174.3" y="109.9" class="st1" width="4" height="15.4"/>
		<path class="st1" d="M258.6,115c-0.1-6.5,8.7-8.7,11.7-2.9c1.8,0,3.6,0,5.4,0c-3.2-12.7-22-10.3-21.9,2.8c0,13.1,18.8,15.4,22,2.7
			c-1.8,0-3.5,0-5.3,0C267.6,123.4,258.7,121.5,258.6,115z"/>
		<polygon class="st1" points="170.2,104.1 166.3,104.1 166.3,109.8 164.4,109.8 164.4,113.3 166.3,113.3 166.3,125.4 170.2,125.4 
			170.2,113.4 172.6,113.4 172.6,109.9 170.2,109.9 		"/>
	</g>
</g>
</svg>
