<?xml version="1.0" encoding="utf-8"?>
<!-- Generator: Adobe Illustrator 23.0.3, SVG Export Plug-In . SVG Version: 6.00 Build 0)  -->
<svg version="1.1" id="Layer_1" xmlns="http://www.w3.org/2000/svg" xmlns:xlink="http://www.w3.org/1999/xlink" x="0px" y="0px"
	 viewBox="0 0 1500 565" style="enable-background:new 0 0 1500 565;" xml:space="preserve">
<style type="text/css">
	.st0{fill:#5D5D5D;}
	.st1{fill:#959595;}
	.st2{fill:#12A94B;}
</style>
<path class="st0" d="M854.7,190.4V29.9h104.2v138.1C924.2,174.9,889.4,182.3,854.7,190.4z M1148.7,136.9v-107h-109.6v122.8
	C1079.2,146.9,1113.9,141.6,1148.7,136.9z M1282.3,121v-16.8c8-3.7,22.3-5.6,35.4-5.6c13.7,0,28.3,2.5,38.3,6.2l18.8-83.7
	c-11.9-1.9-29.7-3.8-49.7-3.8c-59.3,0-109.7,10-147.1,24.4v90.8C1215.5,128.2,1247.6,124.3,1282.3,121z M680.2,238.5
	c9.8-3,19.7-6,29.5-8.9c-3.1-11.2-4.8-23.9-4.8-38c0-56.8,25-90.5,63.7-90.5c17.5,0,31.8,3.7,44.3,12.5l31.8-73.1
	c-26.9-16.2-55.6-23.1-92.4-23.1c-82.4,0-154.2,57.4-154.2,175.5c0,25.9,3.5,48.9,9.7,69.1C631.9,253.8,656,246,680.2,238.5z
	 M171.7,157.9c-19.4-6.9-45.6-15.6-45.6-38.1c0-16.2,14.4-27.5,38.7-27.5c23.1,0,46.2,7.5,64.9,18.7l30.6-69.3
	c-31.8-16.2-69.9-24.4-109.3-24.4c-82.4,0-130.5,40-130.5,103c0,68.7,58.1,89.3,98,103.7c24.4,8.7,43.1,16.9,43.1,36.2
	c0,16.9-15,28.1-38.7,28.1s-56.2-8.7-78.7-21.2l-32.5,77.4C46.2,360.9,83.6,369,126.1,369c95.5,0,143-41.8,143-108
	C269.1,192.3,212.9,172.9,171.7,157.9z M574,272.7V29.9H469.7v250.4c-8,3.1-19.2,5-36,5c-30,0-44.2-13.1-44.2-41.8V29.9H285.3V241
	c0,65.7,25.7,103.2,77.2,119C431.7,327.1,499.1,298.2,574,272.7z"/>
<path class="st1" d="M1282.3,144.6v219.4h-104.2V162.9C1215.5,156.3,1247.6,150.2,1282.3,144.6z M1383.9,131.7v232.3h104.2V119.9
	C1453.4,123.3,1418.7,127.3,1383.9,131.7z M1039.1,192.2v86c0,3.1-19.2,5-36,5c-30,0-44.2-13.1-44.2-41.8v-28.2
	c-34.7,9.3-67.5,19.1-101.7,29.6c1.4,88.3,52.5,124.1,149.8,124.1c54.3,0,106.9-9.4,141.7-24.4V169.4
	C1113.9,176.4,1079.2,184,1039.1,192.2z M768.6,280.7c-5.8,0-11.4-0.9-16.8-2.6c-17.1,6-34.1,12.2-51.1,18.6
	c-19.9,7.5-39.7,15.3-59.3,23.3c28.5,31.4,68.3,46.9,110.9,46.9c36.8,0,65.6-6.9,92.4-23.1L813,268.2
	C800.5,277,786.1,280.7,768.6,280.7z"/>
<path class="st2" d="M1383.9,112.6V29.9h104.2v77.4C1453.4,108.6,1418.7,110.3,1383.9,112.6z M122,441.1h-17l-10.4,44.4
	c-0.7,2.7-1.4,6.2-2.2,10.5c-0.8,4.3-1.4,7.9-1.8,10.8c-0.4-3-1-6.6-1.8-10.8c-0.8-4.2-1.4-7.3-1.9-9.3l-11.9-45.6H58.8l-11.9,45.6
	c-0.7,2.4-1.5,5.9-2.3,10.3c-0.8,4.4-1.3,7.7-1.5,9.8c-0.8-6-2.1-13.1-4-21.3l-10.4-44.4h-17l20.8,81.4h19.6l11-42.6
	c0.5-1.9,1.2-5.1,2.1-9.5c0.9-4.4,1.4-7.7,1.7-9.7c0.1,1.6,0.7,4.8,1.7,9.6c1,4.8,1.7,7.9,2.1,9.4l11,42.7h19.6L122,441.1z
	 M171.4,522.4c3.4-0.7,6.5-1.8,9.5-3.3V506c-3.6,1.7-7.1,2.9-10.5,3.7c-3.3,0.8-6.9,1.2-10.6,1.2c-4.8,0-8.6-1.4-11.2-4.1
	c-2.7-2.7-4.1-6.5-4.3-11.3h40.1v-8.2c0-8.8-2.4-15.7-7.3-20.8c-4.9-5-11.7-7.5-20.5-7.5c-9.2,0-16.4,2.8-21.6,8.5
	c-5.2,5.7-7.8,13.8-7.8,24.2c0,10.1,2.8,18,8.5,23.5c5.6,5.5,13.5,8.3,23.5,8.3C163.9,523.5,168,523.2,171.4,522.4z M165.2,474.5
	c2.1,2.3,3.2,5.5,3.3,9.7h-23.8c0.3-4.2,1.5-7.4,3.5-9.7c2-2.3,4.9-3.4,8.5-3.4C160.3,471.1,163.1,472.2,165.2,474.5z M215.2,468.3
	h-0.7c0.4-5.6,0.7-9.7,0.7-12.3v-20.1h-17v86.6h13l2.8-6.8h1.2c4.2,5.3,9.9,8,17.2,8c7.4,0,13.2-2.8,17.5-8.5
	c4.3-5.6,6.4-13.6,6.4-23.9c0-10-2.1-17.8-6.2-23.6c-4.2-5.7-9.9-8.6-17.3-8.6C225.1,459,219.2,462.1,215.2,468.3z M235.9,477.2
	c2.1,3.1,3.1,7.7,3.1,13.8c0,6.1-1,10.8-3.1,14c-2.1,3.2-4.8,4.8-8.3,4.8c-4.3,0-7.4-1.4-9.4-4.3c-2-2.9-3-7.7-3-14.4v-1.8
	c0.1-5.9,1.1-10.2,3-12.8c1.9-2.6,5-3.9,9.2-3.9C231,472.6,233.8,474.1,235.9,477.2z M312.2,496c-1.1-2.2-2.7-4.2-5-5.9
	c-2.3-1.7-5.8-3.5-10.7-5.5c-5.5-2.2-9-3.8-10.6-5c-1.6-1.1-2.4-2.4-2.4-4c0-2.7,2.5-4.1,7.5-4.1c2.8,0,5.6,0.4,8.3,1.3
	c2.7,0.9,5.6,1.9,8.7,3.3l5.1-12.2c-7.1-3.3-14.4-4.9-21.9-4.9c-7.9,0-13.9,1.5-18.2,4.5c-4.3,3-6.4,7.3-6.4,12.8
	c0,3.2,0.5,5.9,1.5,8.2c1,2.2,2.7,4.2,4.9,5.9c2.2,1.7,5.8,3.6,10.5,5.6c3.3,1.4,6,2.6,8,3.7c2,1.1,3.4,2,4.2,2.8
	c0.8,0.8,1.2,1.9,1.2,3.3c0,3.6-3.1,5.3-9.2,5.3c-3,0-6.5-0.5-10.4-1.5c-4-1-7.5-2.2-10.7-3.7v14c2.8,1.2,5.8,2.1,9,2.7
	c3.2,0.6,7,0.9,11.6,0.9c8.8,0,15.5-1.7,19.9-5c4.4-3.3,6.6-8.2,6.6-14.6C313.8,500.9,313.2,498.2,312.2,496z M335.5,452.5
	c3.1,0,5.4-0.7,6.9-2.2c1.5-1.5,2.3-3.5,2.3-6.1c0-5.5-3.1-8.3-9.2-8.3s-9.2,2.8-9.2,8.3C326.3,449.7,329.4,452.5,335.5,452.5z
	 M344,460.2h-17v62.2h17V460.2z M382.6,508.3c-1.4-1.1-2-2.9-2-5.3v-30H398v-12.7h-17.4V447h-10.9l-4.9,13.1l-9.3,5.7v7.2h8.1v30
	c0,6.9,1.5,12,4.6,15.4c3.1,3.4,8,5.1,14.8,5.1c6.2,0,11.4-0.9,15.6-2.8v-12.6c-4.2,1.3-7.7,1.9-10.7,1.9
	C385.8,510,384,509.4,382.6,508.3z M451.8,522.4c3.4-0.7,6.5-1.8,9.5-3.3V506c-3.6,1.7-7.1,2.9-10.5,3.7c-3.3,0.8-6.9,1.2-10.6,1.2
	c-4.8,0-8.6-1.4-11.2-4.1c-2.7-2.7-4.1-6.5-4.3-11.3h40.1v-8.2c0-8.8-2.4-15.7-7.3-20.8c-4.9-5-11.7-7.5-20.5-7.5
	c-9.2,0-16.4,2.8-21.6,8.5s-7.8,13.8-7.8,24.2c0,10.1,2.8,18,8.5,23.5c5.6,5.5,13.5,8.3,23.5,8.3
	C444.3,523.5,448.4,523.2,451.8,522.4z M445.6,474.5c2.1,2.3,3.2,5.5,3.3,9.7h-23.8c0.3-4.2,1.5-7.4,3.5-9.7c2-2.3,4.9-3.4,8.5-3.4
	C440.6,471.1,443.5,472.2,445.6,474.5z M553.3,486.4c-2.8-3.7-8-7.3-15.6-10.9c-5.8-2.7-9.4-4.6-10.9-5.7c-1.5-1.1-2.7-2.2-3.4-3.3
	c-0.7-1.1-1.1-2.5-1.1-4c0-2.4,0.9-4.4,2.6-6c1.7-1.5,4.2-2.3,7.5-2.3c2.7,0,5.5,0.4,8.4,1.1s6.4,1.9,10.8,3.7l5.6-13.4
	c-4.2-1.8-8.2-3.2-12-4.2c-3.8-1-7.9-1.5-12.1-1.5c-8.6,0-15.3,2.1-20.2,6.2c-4.9,4.1-7.3,9.8-7.3,17c0,3.8,0.7,7.2,2.2,10
	c1.5,2.9,3.5,5.4,6,7.5c2.5,2.2,6.2,4.4,11.2,6.7c5.3,2.5,8.8,4.4,10.5,5.5c1.7,1.1,3,2.3,3.9,3.6c0.9,1.2,1.3,2.7,1.3,4.3
	c0,2.9-1,5-3,6.5c-2,1.4-4.9,2.2-8.7,2.2c-3.2,0-6.6-0.5-10.4-1.5c-3.8-1-8.4-2.7-13.9-5.2v16c6.7,3.3,14.4,4.9,23,4.9
	c9.4,0,16.8-2.1,22.1-6.3c5.3-4.2,7.9-10,7.9-17.4C557.5,494.5,556.1,490,553.3,486.4z M611.5,522.4c3.4-0.7,6.5-1.8,9.5-3.3V506
	c-3.6,1.7-7.1,2.9-10.5,3.7c-3.3,0.8-6.9,1.2-10.6,1.2c-4.8,0-8.6-1.4-11.2-4.1c-2.7-2.7-4.1-6.5-4.3-11.3h40.1v-8.2
	c0-8.8-2.4-15.7-7.3-20.8c-4.9-5-11.7-7.5-20.5-7.5c-9.2,0-16.4,2.8-21.6,8.5c-5.2,5.7-7.8,13.8-7.8,24.2c0,10.1,2.8,18,8.5,23.5
	c5.6,5.5,13.5,8.3,23.5,8.3C604,523.5,608.1,523.2,611.5,522.4z M605.3,474.5c2.1,2.3,3.2,5.5,3.3,9.7h-23.8
	c0.3-4.2,1.5-7.4,3.5-9.7c2-2.3,4.9-3.4,8.5-3.4C600.3,471.1,603.2,472.2,605.3,474.5z M674.1,522.5c2.8-0.7,5.6-1.9,8.3-3.6v-14.5
	c-2.8,1.9-5.6,3.2-8.3,4.1c-2.8,0.9-5.8,1.3-9.1,1.3c-8.8,0-13.2-6.1-13.2-18.3c0-12.5,4.4-18.8,13.2-18.8c2.3,0,4.6,0.3,6.9,1
	c2.3,0.7,4.8,1.6,7.5,2.6l5-13.1c-5.7-2.8-12.2-4.2-19.4-4.2c-9.8,0-17.4,2.8-22.6,8.4s-7.9,13.7-7.9,24.2c0,21.3,9.7,31.9,29,31.9
	C667.8,523.5,671.3,523.2,674.1,522.5z M754,522.4v-62.2h-17v29.3c0,7.3-1.1,12.6-3.2,15.8c-2.1,3.2-5.5,4.8-10.3,4.8
	c-3.5,0-6-1.1-7.6-3.4c-1.6-2.2-2.4-5.6-2.4-10.1v-36.3h-17v40.6c0,7.3,1.9,13,5.6,16.9c3.7,3.9,9.2,5.9,16.5,5.9
	c4.3,0,8.1-0.8,11.4-2.4c3.3-1.6,5.9-3.8,7.7-6.7h0.9l2.3,8H754z M795.8,462.2c-3.3,2.1-5.9,4.9-7.8,8.4h-0.8l-2.5-10.5h-12.9v62.2
	h17v-31.7c0-5,1.5-8.9,4.5-11.7c3-2.8,7.2-4.2,12.7-4.2c2,0,3.6,0.2,5,0.6l1.3-15.9c-1.5-0.3-3.4-0.5-5.7-0.5
	C802.6,459,799.1,460.1,795.8,462.2z M832,452.5c3.1,0,5.4-0.7,6.9-2.2s2.3-3.5,2.3-6.1c0-5.5-3.1-8.3-9.2-8.3s-9.2,2.8-9.2,8.3
	C822.8,449.7,825.9,452.5,832,452.5z M840.5,460.2h-17v62.2h17V460.2z M879.1,508.3c-1.4-1.1-2-2.9-2-5.3v-30h17.4v-12.7h-17.4V447
	h-10.9l-4.9,13.1l-9.3,5.7v7.2h8.1v30c0,6.9,1.5,12,4.6,15.4c3.1,3.4,8,5.1,14.8,5.1c6.2,0,11.4-0.9,15.6-2.8v-12.6
	c-4.2,1.3-7.7,1.9-10.7,1.9C882.3,510,880.5,509.4,879.1,508.3z M923.6,522l-1,3.1c-1.3,3.7-3,6.5-5.3,8.3c-2.2,1.8-4.9,2.8-7.9,2.8
	c-2.4,0-4.6-0.2-6.7-0.7v13.5c2.8,0.6,5.7,0.9,8.6,0.9c6,0,11.2-1.6,15.7-4.8c4.5-3.2,7.9-8.1,10.3-14.6l26.3-70.2h-18.2l-11.5,35
	c-1.2,3.4-2,7-2.4,10.8h-0.3c-0.4-4.2-1.1-7.8-2.1-10.8l-11.7-35h-18.6L923.6,522z M1052,447.4c-5.1-4.2-12.6-6.4-22.5-6.4h-26v81.4
	h17.2v-28.9h7.4c10.1,0,17.9-2.3,23.3-7c5.5-4.6,8.2-11.3,8.2-20.1C1059.7,458,1057.2,451.7,1052,447.4z M1020.8,455.2h7.8
	c4.7,0,8.2,1,10.4,2.9c2.2,1.9,3.3,4.9,3.3,9c0,4-1.3,7.1-3.9,9.2c-2.6,2.1-6.6,3.1-11.9,3.1h-5.7V455.2z M1090.7,435.8h-17v86.6h17
	V435.8z M1159.9,522.4V481c0-7.4-2.2-12.9-6.7-16.6c-4.5-3.6-10.9-5.5-19.2-5.5c-8.7,0-16.7,1.9-23.8,5.6l5.6,11.5
	c6.7-3,12.6-4.5,17.5-4.5c6.5,0,9.7,3.2,9.7,9.5v2.7l-10.8,0.3c-9.3,0.3-16.3,2.1-20.9,5.2c-4.6,3.1-6.9,8-6.9,14.6
	c0,6.3,1.7,11.2,5.1,14.6c3.4,3.4,8.1,5.1,14.1,5.1c4.9,0,8.8-0.7,11.8-2.1c3-1.4,6-3.9,8.8-7.5h0.4l3.3,8.5H1159.9z M1143,498.7
	c0,3.7-1.2,6.8-3.5,9c-2.4,2.3-5.5,3.4-9.4,3.4c-5.5,0-8.2-2.4-8.2-7.2c0-3.3,1.2-5.8,3.6-7.5s6.1-2.5,11-2.7l6.6-0.2V498.7z
	 M1198.2,508.3c-1.4-1.1-2-2.9-2-5.3v-30h17.4v-12.7h-17.4V447h-10.9l-4.9,13.1l-9.3,5.7v7.2h8.1v30c0,6.9,1.5,12,4.6,15.4
	c3.1,3.4,8,5.1,14.8,5.1c6.2,0,11.4-0.9,15.6-2.8v-12.6c-4.2,1.3-7.7,1.9-10.7,1.9C1201.4,510,1199.6,509.4,1198.2,508.3z
	 M1261.2,460.2h-14.7v-3.9c0-2.2,0.5-4.1,1.6-5.5c1.1-1.4,2.8-2.1,5.2-2.1c2.9,0,6,0.5,9.5,1.6l4.3-12.5c-4.6-1.7-9.8-2.6-15.6-2.6
	c-7.7,0-13.3,1.6-16.7,4.9c-3.5,3.3-5.2,8.4-5.2,15.5v4.6l-9.3,4.6v8.2h9.3v49.5h17v-49.5h14.7V460.2z M1323.8,474.1
	c-2.4-4.9-6-8.6-10.5-11.2c-4.6-2.6-9.8-3.9-15.8-3.9c-9.6,0-17.1,2.8-22.4,8.5c-5.3,5.6-8,13.5-8,23.7c0,6.5,1.2,12.2,3.7,17.1
	c2.4,4.9,6,8.7,10.5,11.3s9.8,3.9,15.8,3.9c9.5,0,17-2.9,22.3-8.6c5.3-5.7,8-13.6,8-23.8C1327.5,484.7,1326.3,479,1323.8,474.1z
	 M1287.5,477.3c2-3.1,5.3-4.6,9.8-4.6c4.6,0,7.8,1.5,9.9,4.6c2,3.1,3,7.7,3,13.9c0,6.2-1,10.9-3,14s-5.2,4.7-9.8,4.7
	c-4.6,0-7.9-1.6-9.9-4.7c-2-3.2-3-7.8-3-14C1284.5,485,1285.5,480.4,1287.5,477.3z M1365.5,462.2c-3.3,2.1-5.9,4.9-7.8,8.4h-0.8
	l-2.5-10.5h-12.9v62.2h17v-31.7c0-5,1.5-8.9,4.5-11.7c3-2.8,7.2-4.2,12.7-4.2c2,0,3.6,0.2,5,0.6l1.3-15.9c-1.5-0.3-3.4-0.5-5.7-0.5
	C1372.4,459,1368.8,460.1,1365.5,462.2z M1449,491.2c0-6.5,1-11.2,3.1-14.1c2.1-3,5.2-4.5,9.3-4.5c3.2,0,5.6,1.1,7.1,3.4
	c1.5,2.2,2.3,5.6,2.3,10.1v36.3h17v-40.6c0-8-1.8-13.8-5.4-17.4c-3.6-3.6-9-5.4-16-5.4c-4.1,0-7.7,0.8-11,2.4
	c-3.2,1.6-5.7,3.8-7.4,6.7h-1.5c-3.3-6.1-9.6-9.1-18.9-9.1c-4.1,0-7.7,0.8-10.9,2.4c-3.2,1.6-5.6,3.8-7.2,6.7h-0.9l-2.3-8h-13v62.2
	h17v-29.3c0-7.3,1-12.6,2.9-15.7c2-3.2,5.1-4.8,9.5-4.8c3.2,0,5.6,1.1,7.1,3.4c1.5,2.2,2.3,5.6,2.3,10.1v36.3h17V491.2z"/>
</svg>
